<?xml version="1.0" encoding="utf-8"?>
<!-- Generator: Adobe Illustrator 20.1.0, SVG Export Plug-In . SVG Version: 6.00 Build 0)  -->
<svg version="1.1" id="Layer_1" xmlns="http://www.w3.org/2000/svg" xmlns:xlink="http://www.w3.org/1999/xlink" x="0px" y="0px"
	 viewBox="0 0 9033.8 8494" style="enable-background:new 0 0 9033.8 8494;" xml:space="preserve">
<style type="text/css">
	.st0{fill:#096000;}
	.st1{fill:#6AC600;}
	.st2{fill:#787284;}
	.st3{fill:#CFC7E2;}
	.st4{fill:#624f37;}
	.st5{fill:#FFFFFF}
	.st6{fill:#FFFFFF;}
	.st7{fill:#bea083;}
	.st8{fill:#288700;}
	.st9{fill:#2B3538;}
	.st10{display:none;}
	.st11{display:inline;fill:#28272B;}
	.st12{display:inline;opacity:0.88;fill:#771100;enable-background:new    ;}
	.st13{display:inline;}
	.st14{fill:#C9B58F;}
	.st15{fill:#CC4627;}
	.st16{fill:#FFF8BB;}
	.st17{opacity:0.86;fill:#771100;enable-background:new    ;}
	.st18{fill:#442211;}
	.st19{fill:#771100;}
	.st20{fill:#D3CADD;}
	.st21{fill:#E88D74;}
	.st22{fill:#BC3515;}
	.st23{fill:#EA564B;}
	.st24{fill:#FFB000;}
	.st25{fill:#F4BA92;}
	.st26{display:inline;fill:#54A0BA;}
	.st27{fill:#723333;}
	.st28{fill:#7F4B3F;}
	.st29{fill:#372419;}
	.st30{fill:#1C110B;}
	.st31{fill:#680C00;}
	.st32{fill:#28272B;}
	.st33{fill:#23221E;}
	.st34{fill:#E8E882;}
	.st35{fill:#C7CE67;}
	.st36{fill:#E86900;}
</style>
<g id="WORLD">
	<g>
		<polygon class="st0" points="3142.7,358.7 3314.8,248.5 3498,310.2 3620.2,431.8 3797.8,431.8 3892.2,310.2 3920,187.5 
			4047.7,181.9 4108.8,310.2 4197.6,306.8 4358.6,154.1 4758.4,154.1 4780.6,358.7 4925,358.7 5119.3,265.2 5341.4,204.1 
			5496.9,254.1 5496.9,401.6 5602.4,465.1 5685.7,358.7 5802.3,401.6 5918.9,498.5 5874.5,620.4 6024.4,676.1 6268.7,620.4 
			6402,454 6646.3,470.6 6740.7,577.3 6712.9,737.2 6668.5,903.7 6796.2,1003.7 6951.6,941.6 7073.8,975.9 7196,1075.9 7196,1225.8 
			7284.8,1347.9 7556.9,1336.8 7729,1481.2 7712.3,1636.7 7740.1,1792.1 7906.7,1886.5 7978.9,1758.8 8128.8,1736.6 8295.3,1836.5 
			8300.9,1975.4 8173.2,2003.1 8253.9,2092 8162.1,2203 8089.9,2280.7 8206.5,2386.2 8434.2,2336.3 8600.7,2480.6 8573,2686.1 
			8332.7,2786 8228.7,2869.3 8362,3041.4 8484.1,2958.1 8600.7,3041.4 8600.7,3169.1 8778.4,3385.7 8711.8,3513.4 8600.7,3546.7 
			8645.2,3685.5 8778.4,3718.8 8845,3946.5 8850.6,4213 8717.3,4290.7 8595.2,4351.8 8634,4490.6 8839.5,4529.5 8961.6,4762.7 
			8861.7,4945.9 9033.8,5045.9 9011.6,5229.1 8811.7,5306.8 8595.2,5262.4 8473,5423.4 8567.4,5556.7 8789.5,5617.8 8734,5828.8 
			8500.8,5867.6 8332.7,5884.3 8332.7,6078.6 8489.7,6372.9 8667.4,6445.1 8606.3,6806 8332.7,6917.1 8062.1,6789.3 7912.2,6678.3 
			7895.6,6794.9 7978.9,6967 8201,7028.1 8228.7,7244.7 8022.7,7272.4 7645.7,7161.4 7484.7,7094.7 7473.6,7333.5 7645.7,7555.6 
			7479.1,7696.3 7062.7,7696.3 7018.3,7477.9 6790.6,7572.2 6951.6,7805.5 7012.7,8049.8 6790.6,8144.2 6501.9,8121.9 
			6385.3,7949.8 6185.4,7927.5 6088.2,8205.2 5941.1,8410.7 5608,8444 5397,8277.4 5347,8144.2 5036,8216.3 4947.2,8444 
			4519.7,8494 4453,8366.3 4319.8,8227.4 4197.6,8305.2 4175.4,8460.6 3931.1,8494 3725.7,8349.6 3714.6,8194.1 3459.1,8121.9 
			3359.2,8316.3 3142.7,8344 3020.5,8244.1 3059.4,8133 2987.2,7983.1 2942.8,8133 2792.8,8127.5 2765.1,8006.2 2604.1,8077.5 
			2520.8,8199.7 2098.8,8166.4 1987.7,7927.5 2059.9,7655.5 1876.7,7455.6 1604.6,7588.9 1293.7,7250.2 1349.2,7005.9 
			1443.6,6783.8 1293.7,6467.3 1088.2,6489.5 825,6639.4 694,6356.3 721.8,6111.9 903.8,5989.8 825,5690 694,5706.6 694,5451.2 
			744,5273.5 749.5,5084.7 421.9,4995.9 516.3,4723.8 666.3,4579.5 338.7,4129.7 61,4179.7 0,3829.9 88.8,3591.1 305.3,3441.2 
			521.9,3491.2 594.1,3274.6 272,3174.7 316.4,2952.6 566.3,2863.8 555.2,2569.5 388.6,2408.4 383.1,2191.9 566.3,2014.2 
			727.3,2003.1 982.7,2025.3 1038.3,1797.7 1005,1586.7 1177.1,1275.7 1449.1,1281.3 1737.9,1364.6 2059.9,1220.2 2132.1,981.5 
			2048.8,759.4 2431.9,620.4 2676.2,770.5 2892.8,687.2 2909.4,498.5 3126,498.5 		"/>
		<polygon class="st1" points="2463.7,1201.5 2427.1,1064.5 2463.7,904.6 2568.8,808.5 2737.8,877.2 2806.3,808.5 2979.9,758.4 
			3121.5,758.4 3244.9,620.4 3254,498.5 3436.7,443.2 3614.9,552.8 3712.9,679.9 4048.9,577.3 4007.8,479.7 4071.7,401.6 
			4167.7,358.7 4234.3,434 4409.8,401.6 4537.7,358.7 4633.6,452.3 4847.6,461.5 4990,443.2 5213.8,358.7 5355.4,401.6 
			5355.4,498.5 5542.7,598.5 5675.2,577.3 5757.4,498.5 5830.5,548.3 5953.9,620.4 6017.8,726.4 6232.5,740.1 6346.7,667 
			6461,712.7 6461,858.9 6570.6,780.1 6739.6,808.5 6703.1,1005.1 6629.5,1202.2 6752.5,1245.1 7018.3,1114.7 7141.6,1137.6 
			7141.6,1306.6 7182.7,1457.3 7333.5,1503 7443.1,1448.2 7552.8,1503 7657.8,1589.8 7593.9,1713.2 7520.8,1713.2 7548.2,1822.8 
			7657.8,1863.9 7753.8,1863.9 7808.6,1964.4 7772.1,2087.8 7959.4,2001 8073.6,2087.8 8069,2179.1 7982.2,2261.4 7832.3,2432.8 
			7864.1,2574.4 8046.1,2446.1 8073.6,2512.6 8206,2462.4 8288.3,2535.5 8332.7,2649.7 8253.9,2699.9 8332.7,2864.4 8228.9,3042.5 
			8332.7,3165.9 8443.6,3143 8548.7,3339.5 8493.8,3472 8370.5,3522.2 8375.1,3677.5 8525.8,3732.4 8626.3,3796.3 8649.2,3979 
			8585.2,4056.7 8503,4093.2 8626.3,4212 8535,4324.1 8439,4385.6 8274.6,4595.8 8072.8,5394.9 8146.7,5692.2 8253.9,5733.3 
			8253.9,5879.5 8114.7,6002.8 8022.7,6030.2 8082.7,6281.5 8224.3,6340.9 8219.7,6468.8 8073.6,6569.3 7900,6537.3 7826.9,6601.2 
			7931.9,6806.8 7858.9,6930.2 7644.1,6953 7479.7,6847.9 7374.6,6953 7374.6,7126.6 7223.9,7231.7 7127.9,7181.4 7141.6,7323 
			7123.4,7492.1 6981.7,7578.9 6757.9,7469.2 6616.3,7345.9 6351.3,7524 6346.7,7729.6 6246.2,7862.1 6068.1,7862.1 5944.7,7720.5 
			5702.6,7779.9 5716.3,8006.2 5625,8149.9 5469.6,8168.2 5396.5,8314.4 5236.7,8277.8 5131.6,8127.1 5046.1,7977.4 4711.3,7875.8 
			4656.5,8136.2 4482.9,8186.4 4336.7,8136.2 4240.8,8054 4099.1,8232.1 4080.9,8364.6 3930.1,8332.6 3857,8195.6 3752,8095.1 
			3614.9,8236.7 3487,8186.4 3377.4,7980.9 3295.1,7843.8 3167.2,7875.8 3153.5,7967.2 2998.2,8076.8 2902.3,7980.9 2852,7766.2 
			2765.2,7638.2 2705.8,7696.3 2774.3,7821 2696.7,7898.6 2536.8,7894.1 2450,7770.7 2427.1,7898.6 2239.8,7927.5 2153.1,7807.3 
			2212.4,7606.3 2294.7,7455.5 2171.3,7350.4 2066.3,7441.8 1979.5,7382.4 1901.8,7245.4 1942.9,7103.8 1842.4,6980.4 
			1705.4,7030.7 1536.3,6943.9 1527.2,6774.8 1554.6,6633.2 1294.2,6628.7 1180,6546.4 1116,6331.7 1198.3,6149 1257.3,5827.2 
			979,4801.3 746,4792.2 613.5,4687.1 513,4527.2 586.1,4324.1 695.8,4252.4 727.7,4011 609,3951.6 439.9,3951.6 430.8,3768.9 
			467.4,3622.7 604.4,3590.7 704.9,3526.8 796.3,3339.5 796.3,3179.6 663.8,3152.2 613.5,3028.8 714,2891.8 903.8,2864.4 
			1371.9,2800.4 1499.8,2375.6 1303.3,2192.8 1280.5,2001 1390.1,1804.5 1513.5,1831.9 1582,1676.6 1417.6,1589.8 1481.5,1411.7 
			1705.4,1238.1 1920.1,1338.6 2061.7,1498.5 2445.4,1498.5 		"/>
		<rect x="4310" class="st2" width="537.6" height="620.4"/>
		
			<rect x="4847.8" y="194.9" transform="matrix(7.558970e-02 -0.9971 0.9971 7.558970e-02 4346.8931 5406.5811)" class="st3" width="483.3" height="328"/>
		
			<rect x="5797.2" y="303.2" transform="matrix(0.3499 -0.9368 0.9368 0.3499 3311.4746 6009.3086)" class="st4" width="376.3" height="631.2"/>
		
			<rect x="6725.7" y="958" transform="matrix(0.5753 -0.8179 0.8179 0.5753 1996.1481 6116.2354)" class="st5" width="324.5" height="355.7"/>
		
			<rect x="7065" y="1173.4" transform="matrix(0.6948 -0.7192 0.7192 0.6948 1306.1799 5722.9028)" class="st2" width="662.3" height="298.1"/>
		
			<rect x="7873.9" y="2286.6" transform="matrix(0.8988 -0.4384 0.4384 0.8988 -261.3785 3818.5715)" class="st4" width="529.9" height="377.5"/>
		
			<rect x="7450.8" y="1500.9" transform="matrix(0.7783 -0.6279 0.6279 0.7783 559.275 5197.9717)" class="st3" width="379" height="612.2"/>
		
			<rect x="8077.7" y="2760.5" transform="matrix(0.9441 -0.3298 0.3298 0.9441 -513.2919 2880.021)" class="st4" width="308.8" height="384.8"/>
		
			<rect x="8238.6" y="3270.4" transform="matrix(0.9881 -0.1535 0.1535 0.9881 -447.7914 1338.9093)" class="st6" width="415.9" height="597.7"/>
		<rect x="8306.8" y="4054" class="st7" width="573.4" height="396.8"/>
		
			<rect x="8110.6" y="4778.8" transform="matrix(0.1949 -0.9808 0.9808 0.1949 1868.4241 12308.9092)" class="st4" width="642.7" height="475"/>
		
			<rect x="8040.2" y="5519.6" transform="matrix(0.3891 -0.9212 0.9212 0.3891 -292.7766 11155.4492)" class="st2" width="448.5" height="557.8"/>
		
			<rect x="7468.7" y="6429.1" transform="matrix(0.6147 -0.7888 0.7888 0.6147 -2302.1155 8685.1074)" class="st2" width="539.5" height="539.5"/>
		
			<rect x="6506.9" y="7282.9" transform="matrix(0.825 -0.5651 0.5651 0.825 -3083.1804 5172.6675)" class="st6" width="608" height="563.9"/>
		
			<rect x="5456.2" y="7779.6" transform="matrix(0.9505 -0.3106 0.3106 0.9505 -2187.9395 2193.9307)" class="st7" width="676.8" height="374.3"/>
		<rect x="4353.8" y="7979.8" class="st4" width="450" height="335.9"/>
		
			<rect x="3960.3" y="7948.4" transform="matrix(0.1392 -0.9903 0.9903 0.1392 -4482.9414 10981.5742)" class="st2" width="229.5" height="241.9"/>
		
			<rect x="3567.4" y="7949.9" transform="matrix(0.2018 -0.9794 0.9794 0.2018 -4908.8667 10093.8408)" class="st2" width="342" height="217.5"/>
		
			<rect x="3302" y="7777.3" transform="matrix(0.3098 -0.9508 0.9508 0.3098 -5166.5723 8714.584)" class="st6" width="234.5" height="277.3"/>
		
			<rect x="2182.8" y="7280" transform="matrix(0.5692 -0.8222 0.8222 0.5692 -5125.6963 5180.9722)" class="st7" width="396.8" height="403.5"/>
		
			<rect x="1786.9" y="7109.4" transform="matrix(0.664 -0.7477 0.7477 0.664 -4732.3765 3920.207)" class="st6" width="418.1" height="233.1"/>
		
			<rect x="1381.3" y="6486.8" transform="matrix(0.768 -0.6404 0.6404 0.768 -3971.7939 2580.1221)" class="st3" width="388.6" height="571.6"/>
		
			<rect x="795" y="5842.6" transform="matrix(0.9 -0.4358 0.4358 0.9 -2515.8638 1049.8037)" class="st4" width="471" height="333"/>
		
			<rect x="710" y="5280.6" transform="matrix(0.9459 -0.3246 0.3246 0.9459 -1741.5149 586.0541)" class="st4" width="351.8" height="465"/>
		
			<rect x="569.4" y="2463.4" transform="matrix(0.3865 -0.9223 0.9223 0.3865 -1907.4973 2539.0222)" class="st7" width="770.6" height="479.7"/>
		
			<rect x="1155.1" y="1968.9" transform="matrix(0.5618 -0.8273 0.8273 0.5618 -1195.6246 2018.3717)" class="st6" width="304.5" height="337.8"/>
		
			<rect x="396.6" y="3240.8" transform="matrix(0.1783 -0.984 0.984 0.1783 -2911.8076 3550.8086)" class="st2" width="547" height="556"/>
		
			<rect x="1843.4" y="766.5" transform="matrix(0.7657 -0.6432 0.6432 0.7657 -242.0862 1554.6725)" class="st3" width="339" height="686.3"/>
		
			<rect x="1461.8" y="1459.1" transform="matrix(0.6694 -0.7429 0.7429 0.6694 -651.3583 1806.0079)" class="st6" width="483.4" height="351.5"/>
		
			<rect x="2635" y="578.1" transform="matrix(0.8899 -0.4561 0.4561 0.8899 -40.1282 1355.2852)" class="st2" width="305.5" height="365.3"/>
		
			<rect x="3018.8" y="87.7" transform="matrix(0.941 -0.3384 0.3384 0.941 46.8152 1115.5875)" class="st7" width="408" height="671.7"/>
		
			<rect x="3653.8" y="354.7" transform="matrix(0.9803 -0.1977 0.1977 0.9803 -20.1805 764.5553)" class="st3" width="330.6" height="257.3"/>
		<circle class="st8" cx="4578.8" cy="4252.4" r="3753.8"/>
		<circle class="st9" cx="4578.8" cy="4252.4" r="3675.1"/>
		<circle class="st8" cx="4578.8" cy="4252.4" r="3343.9"/>
	</g>
</g>


</svg>
