<?xml version="1.0" encoding="utf-8"?>
<!-- Generator: Adobe Illustrator 20.1.0, SVG Export Plug-In . SVG Version: 6.00 Build 0)  -->
<svg version="1.1" xmlns="http://www.w3.org/2000/svg" xmlns:xlink="http://www.w3.org/1999/xlink" x="0px" y="0px"
	 viewBox="0 0 1920 1080" style="enable-background:new 0 0 1920 1080;" xml:space="preserve">
<style type="text/css">
	.st0{display:none;}
	.st1{display:inline;}
	.st2{fill:#096000;}
	.st3{fill:#6AC600;}
	.st4{fill:#787284;}
	.st5{fill:#CFC7E2;}
	.st6{fill:#774E1D;}
	.st7{fill:#FFFFFF;stroke:#000000;stroke-miterlimit:10;}
	.st8{fill:#FFFFFF;}
	.st9{fill:#C46608;}
	.st10{fill:#288700;}
	.st11{fill:#2B3538;}
	.st12{fill:#28272B;}
	.st13{opacity:0.88;fill:#771100;}
	.st14{fill:#C9B58F;}
	.st15{fill:#CC4627;}
	.st16{fill:#FFF8BB;}
	.st17{opacity:0.86;fill:#771100;}
	.st18{fill:#442211;}
	.st19{fill:#771100;}
	.st20{fill:#D3CADD;}
	.st21{fill:#E88D74;}
	.st22{fill:#BC3515;}
	.st23{fill:#EA564B;}
	.st24{fill:#FFB000;}
	.st25{fill:#F4BA92;}
	.st26{fill:#54A0BA;}
	.st27{fill:#723333;}
	.st28{fill:#7F4B3F;}
	.st29{fill:#372419;}
	.st30{fill:#1C110B;}
	.st31{fill:#680C00;}
	.st32{fill:#23221E;}
	.st33{fill:#E8E882;}
	.st34{fill:#C7CE67;}
	.st35{fill:#E86900;}
</style>
<g id="WORLD" class="st0">
	<g class="st1">
		<polygon class="st2" points="-1091.6,497.1 -919.5,386.9 -736.3,448.6 -614.1,570.2 -436.5,570.2 -342.1,448.6 -314.3,325.9 
			-186.6,320.3 -125.5,448.6 -36.7,445.2 124.3,292.5 524.1,292.5 546.3,497.1 690.7,497.1 885,403.6 1107.1,342.5 1262.6,392.5 
			1262.6,540 1368.1,603.5 1451.4,497.1 1568,540 1684.6,636.9 1640.2,758.8 1790.1,814.5 2034.4,758.8 2167.7,592.4 2412,609 
			2506.4,715.7 2478.6,875.6 2434.2,1042.1 2561.9,1142.1 2717.3,1080 2839.5,1114.3 2961.7,1214.3 2961.7,1364.2 3050.5,1486.3 
			3322.6,1475.2 3494.7,1619.6 3478,1775.1 3505.8,1930.5 3672.4,2024.9 3744.6,1897.2 3894.5,1875 4061,1974.9 4066.6,2113.8 
			3938.9,2141.5 4019.6,2230.4 3927.8,2341.4 3855.6,2419.1 3972.2,2524.6 4199.9,2474.7 4366.4,2619 4338.7,2824.5 4098.4,2924.4 
			3994.4,3007.7 4127.7,3179.8 4249.8,3096.5 4366.4,3179.8 4366.4,3307.5 4544.1,3524.1 4477.5,3651.8 4366.4,3685.1 
			4410.9,3823.9 4544.1,3857.2 4610.7,4084.9 4616.3,4351.4 4483,4429.1 4360.9,4490.2 4399.7,4629 4605.2,4667.9 4727.3,4901.1 
			4627.4,5084.3 4799.5,5184.3 4777.3,5367.5 4577.4,5445.2 4360.9,5400.8 4238.7,5561.8 4333.1,5695.1 4555.2,5756.2 
			4499.7,5967.2 4266.5,6006 4098.4,6022.7 4098.4,6217 4255.4,6511.3 4433.1,6583.5 4372,6944.4 4098.4,7055.5 3827.8,6927.7 
			3677.9,6816.7 3661.3,6933.3 3744.6,7105.4 3966.7,7166.5 3994.4,7383.1 3788.4,7410.8 3411.4,7299.8 3250.4,7233.1 
			3239.3,7471.9 3411.4,7694 3244.8,7834.7 2828.4,7834.7 2784,7616.3 2556.3,7710.6 2717.3,7943.9 2778.4,8188.2 2556.3,8282.6 
			2267.6,8260.3 2151,8088.2 1951.1,8065.9 1853.9,8343.6 1706.8,8549.1 1373.7,8582.4 1162.7,8415.8 1112.7,8282.6 801.7,8354.7 
			712.9,8582.4 285.4,8632.4 218.7,8504.7 85.5,8365.8 -36.7,8443.6 -58.9,8599 -303.2,8632.4 -508.6,8488 -519.7,8332.5 
			-775.2,8260.3 -875.1,8454.7 -1091.6,8482.4 -1213.8,8382.5 -1174.9,8271.4 -1247.1,8121.5 -1291.5,8271.4 -1441.5,8265.9 
			-1469.2,8144.6 -1630.2,8215.9 -1713.5,8338.1 -2135.5,8304.8 -2246.6,8065.9 -2174.4,7793.9 -2357.6,7594 -2629.7,7727.3 
			-2940.6,7388.6 -2885.1,7144.3 -2790.7,6922.2 -2940.6,6605.7 -3146.1,6627.9 -3409.3,6777.8 -3540.3,6494.7 -3512.5,6250.3 
			-3330.5,6128.2 -3409.3,5828.4 -3540.3,5845 -3540.3,5589.6 -3490.3,5411.9 -3484.8,5223.1 -3812.4,5134.3 -3718,4862.2 
			-3568,4717.9 -3895.6,4268.1 -4173.3,4318.1 -4234.3,3968.3 -4145.5,3729.5 -3929,3579.6 -3712.4,3629.6 -3640.2,3413 
			-3962.3,3313.1 -3917.9,3091 -3668,3002.2 -3679.1,2707.9 -3845.7,2546.8 -3851.2,2330.3 -3668,2152.6 -3507,2141.5 
			-3251.6,2163.7 -3196,1936.1 -3229.3,1725.1 -3057.2,1414.1 -2785.2,1419.7 -2496.4,1503 -2174.4,1358.6 -2102.2,1119.9 
			-2185.5,897.8 -1802.4,758.8 -1558.1,908.9 -1341.5,825.6 -1324.9,636.9 -1108.3,636.9 		"/>
		<polygon class="st3" points="-1770.6,1339.9 -1807.2,1202.9 -1770.6,1043 -1665.5,946.9 -1496.5,1015.6 -1428,946.9 
			-1254.4,896.8 -1112.8,896.8 -989.4,758.8 -980.3,636.9 -797.6,581.6 -619.4,691.2 -521.4,818.3 -185.4,715.7 -226.5,618.1 
			-162.6,540 -66.6,497.1 0,572.4 175.5,540 303.4,497.1 399.3,590.7 613.3,599.9 755.7,581.6 979.5,497.1 1121.1,540 1121.1,636.9 
			1308.4,736.9 1440.9,715.7 1523.1,636.9 1596.2,686.7 1719.6,758.8 1783.5,864.8 1998.2,878.5 2112.4,805.4 2226.7,851.1 
			2226.7,997.3 2336.3,918.5 2505.3,946.9 2468.8,1143.5 2395.2,1340.6 2518.2,1383.5 2784,1253.1 2907.3,1276 2907.3,1445 
			2948.4,1595.7 3099.2,1641.4 3208.8,1586.6 3318.5,1641.4 3423.5,1728.2 3359.6,1851.6 3286.5,1851.6 3313.9,1961.2 
			3423.5,2002.3 3519.5,2002.3 3574.3,2102.8 3537.8,2226.2 3725.1,2139.4 3839.3,2226.2 3834.7,2317.5 3747.9,2399.8 3598,2571.2 
			3629.8,2712.8 3811.8,2584.5 3839.3,2651 3971.7,2600.8 4054,2673.9 4098.4,2788.1 4019.6,2838.3 4098.4,3002.8 3994.6,3180.9 
			4098.4,3304.3 4209.3,3281.4 4314.4,3477.9 4259.5,3610.4 4136.2,3660.6 4140.8,3815.9 4291.5,3870.8 4392,3934.7 4414.9,4117.4 
			4350.9,4195.1 4268.7,4231.6 4392,4350.4 4300.7,4462.5 4204.7,4524 4040.3,4734.2 3838.5,5533.3 3912.4,5830.6 4019.6,5871.7 
			4019.6,6017.9 3880.4,6141.2 3788.4,6168.6 3848.4,6419.9 3990,6479.3 3985.4,6607.2 3839.3,6707.7 3665.7,6675.7 3592.6,6739.6 
			3697.6,6945.2 3624.6,7068.6 3409.8,7091.4 3245.4,6986.3 3140.3,7091.4 3140.3,7265 2989.6,7370.1 2893.6,7319.8 2907.3,7461.4 
			2889.1,7630.5 2747.4,7717.3 2523.6,7607.6 2382,7484.3 2117,7662.4 2112.4,7868 2011.9,8000.5 1833.8,8000.5 1710.4,7858.9 
			1468.3,7918.3 1482,8144.6 1390.7,8288.3 1235.3,8306.6 1162.2,8452.8 1002.4,8416.2 897.3,8265.5 811.8,8115.8 477,8014.2 
			422.2,8274.6 248.6,8324.8 102.4,8274.6 6.5,8192.4 -135.2,8370.5 -153.4,8503 -304.2,8471 -377.3,8334 -482.3,8233.5 
			-619.4,8375.1 -747.3,8324.8 -856.9,8119.3 -939.2,7982.2 -1067.1,8014.2 -1080.8,8105.6 -1236.1,8215.2 -1332,8119.3 
			-1382.3,7904.6 -1469.1,7776.6 -1528.5,7834.7 -1460,7959.4 -1537.6,8037 -1697.5,8032.5 -1784.3,7909.1 -1807.2,8037 
			-1994.5,8065.9 -2081.2,7945.7 -2021.9,7744.7 -1939.6,7593.9 -2063,7488.8 -2168,7580.2 -2254.8,7520.8 -2332.5,7383.8 
			-2291.4,7242.2 -2391.9,7118.8 -2528.9,7169.1 -2698,7082.3 -2707.1,6913.2 -2679.7,6771.6 -2940.1,6767.1 -3054.3,6684.8 
			-3118.3,6470.1 -3036,6287.4 -2977,5965.6 -3255.3,4939.7 -3488.3,4930.6 -3620.8,4825.5 -3721.3,4665.6 -3648.2,4462.5 
			-3538.5,4390.8 -3506.6,4149.4 -3625.3,4090 -3794.4,4090 -3803.5,3907.3 -3766.9,3761.1 -3629.9,3729.1 -3529.4,3665.2 
			-3438,3477.9 -3438,3318 -3570.5,3290.6 -3620.8,3167.2 -3520.3,3030.2 -3330.5,3002.8 -2862.4,2938.8 -2734.5,2514 -2931,2331.2 
			-2953.8,2139.4 -2844.2,1942.9 -2720.8,1970.3 -2652.3,1815 -2816.7,1728.2 -2752.8,1550.1 -2528.9,1376.5 -2314.2,1477 
			-2172.6,1636.9 -1788.9,1636.9 		"/>
		<rect x="75.7" y="138.4" class="st4" width="537.6" height="620.4"/>
		
			<rect x="691.2" y="255.4" transform="matrix(0.9971 7.558377e-02 -7.558377e-02 0.9971 40.0165 -63.2165)" class="st5" width="328" height="483.3"/>
		
			<rect x="1435.4" y="569.1" transform="matrix(0.9368 0.3499 -0.3499 0.9368 375.702 -564.8569)" class="st6" width="631.2" height="376.3"/>
		
			<rect x="2476.1" y="1111.9" transform="matrix(0.8179 0.5753 -0.5753 0.8179 1216.214 -1294.8774)" class="st7" width="355.7" height="324.5"/>
		
			<rect x="3012.6" y="1129.8" transform="matrix(0.7192 0.6948 -0.6948 0.7192 1903.0269 -1786.5599)" class="st4" width="298.1" height="662.3"/>
		
			<rect x="3639.4" y="2425" transform="matrix(0.8988 -0.4384 0.4384 0.8988 -750.6348 1976.1932)" class="st6" width="529.9" height="377.5"/>
		
			<rect x="3099.7" y="1755.9" transform="matrix(0.6279 0.7783 -0.7783 0.6279 2781.6484 -1926.8553)" class="st5" width="612.2" height="379"/>
		
			<rect x="3805.2" y="2936.7" transform="matrix(0.3298 0.9441 -0.9441 0.3298 5597.3472 -1702.2792)" class="st6" width="384.8" height="308.8"/>
		
			<rect x="4005" y="3408.8" transform="matrix(0.9881 -0.1535 0.1535 0.9881 -519.3355 690.8499)" class="st8" width="415.9" height="597.7"/>
		<rect x="4072.5" y="4192.4" class="st9" width="573.4" height="396.8"/>
		
			<rect x="3960.7" y="4833.2" transform="matrix(0.9808 0.1949 -0.1949 0.9808 1084.8512 -719.2197)" class="st6" width="475" height="642.7"/>
		
			<rect x="3751.5" y="5712.5" transform="matrix(0.9212 0.3891 -0.3891 0.9212 2627.2468 -1100.2974)" class="st4" width="557.8" height="448.5"/>
		
			<rect x="3233.8" y="6567.6" transform="matrix(0.6147 -0.7888 0.7888 0.6147 -4043.1187 5398.0068)" class="st4" width="539.5" height="539.5"/>
		
			<rect x="2272.6" y="7421.8" transform="matrix(0.825 -0.5651 0.5651 0.825 -3902.3254 2803.751)" class="st8" width="608" height="563.9"/>
		
			<rect x="1222.1" y="7918.6" transform="matrix(0.9505 -0.3106 0.3106 0.9505 -2440.323 885.5077)" class="st9" width="676.8" height="374.3"/>
		<rect x="119.5" y="8118.2" class="st6" width="450" height="335.9"/>
		
			<rect x="-280.4" y="8092.8" transform="matrix(0.9903 0.1392 -0.1392 0.9903 1140.8765 102.0898)" class="st4" width="241.9" height="229.5"/>
		
			<rect x="-604.3" y="8026.2" transform="matrix(0.9794 0.2018 -0.2018 0.9794 1643.868 268.6168)" class="st4" width="217.5" height="342"/>
		
			<rect x="-954" y="7937" transform="matrix(0.9508 0.3098 -0.3098 0.9508 2455.3867 648.9871)" class="st8" width="277.3" height="234.5"/>
		
			<rect x="-2054.9" y="7421.7" transform="matrix(0.8222 0.5692 -0.5692 0.8222 4007.9446 2409.7407)" class="st9" width="403.5" height="396.8"/>
		
			<rect x="-2447.2" y="7248.1" transform="matrix(0.664 -0.7477 0.7477 0.664 -6258.6016 800.9013)" class="st8" width="418.1" height="233.1"/>
		
			<rect x="-2852.6" y="6625.5" transform="matrix(0.768 -0.6404 0.6404 0.768 -5042.9165 -99.1262)" class="st5" width="388.6" height="571.6"/>
		
			<rect x="-3439.1" y="5981.4" transform="matrix(0.9 -0.4358 0.4358 0.9 -2999.6743 -781.5895)" class="st6" width="471" height="333"/>
		
			<rect x="-3524.5" y="5418.5" transform="matrix(0.9459 -0.3246 0.3246 0.9459 -2015.3544 -780.9057)" class="st6" width="351.8" height="465"/>
		
			<rect x="-3665" y="2601.8" transform="matrix(0.3865 -0.9223 0.9223 0.3865 -4632.8135 -1281.493)" class="st9" width="770.6" height="479.7"/>
		
			<rect x="-3079.1" y="2107.2" transform="matrix(0.5618 -0.8273 0.8273 0.5618 -3165.6116 -1423.9426)" class="st8" width="304.5" height="337.8"/>
		
			<rect x="-3842.2" y="3383.6" transform="matrix(0.984 0.1783 -0.1783 0.984 594.9636 694.1057)" class="st4" width="556" height="547"/>
		
			<rect x="-2391" y="904.9" transform="matrix(0.7657 -0.6432 0.6432 0.7657 -1323.1893 -1136.4421)" class="st5" width="339" height="686.3"/>
		
			<rect x="-2772.4" y="1597.5" transform="matrix(0.6694 -0.7429 0.7429 0.6694 -2154.0979 -1293.8192)" class="st8" width="483.4" height="351.5"/>
		
			<rect x="-1599.3" y="716.5" transform="matrix(0.8899 -0.4561 0.4561 0.8899 -569.2349 -560.7797)" class="st4" width="305.5" height="365.3"/>
		
			<rect x="-1215.6" y="226" transform="matrix(0.941 -0.3384 0.3384 0.941 -249.7635 -309.1239)" class="st9" width="408" height="671.7"/>
		
			<rect x="-580.5" y="493.1" transform="matrix(0.9803 -0.1977 0.1977 0.9803 -131.1478 -69.8182)" class="st5" width="330.6" height="257.3"/>
		<circle class="st10" cx="344.5" cy="4390.8" r="3753.8"/>
		<circle class="st11" cx="344.5" cy="4390.8" r="3675.1"/>
		<circle class="st10" cx="344.5" cy="4390.8" r="3443.9"/>
	</g>
</g>
<g id="TYRE_x5F_third">
	
		<ellipse transform="matrix(0.9815 -0.1914 0.1914 0.9815 -135.1844 246.9914)" class="st12" cx="1210.8" cy="823.2" rx="69.8" ry="75.9"/>
</g>
<g id="SEATS">
	<polygon class="st13" points="598.8,482.9 585.4,483.4 608.3,496.5 600.2,508.5 595.2,505.1 590.5,512.6 587.2,506.2 589,499.8 
		577.6,493.7 567.3,508.5 558.8,509.6 552.3,496.5 536,496.9 536,509.6 542,516.4 542,523 536,524.5 525.3,503.6 515.9,505.1 
		505.2,514.2 501.6,509.6 505.2,493.7 484.5,496.9 466,505.1 468.1,518.4 464.1,520.5 453.5,510.1 452.5,511 449.6,520.5 
		457.7,526.9 459.4,533.7 452.1,535.4 436.8,524.8 413.1,545.7 418.4,563.3 622,559.9 632,538.6 643.6,477.7 	"/>
	<g>
		<path class="st14" d="M729.6,552.5c0-5,2.6-9.4,6.9-12.7l4-46.1l-13.6,0.6L716,589.1c-12-49.9-71.1-48.6-71.1-48.6l11.1-42.3
			l-33.8-0.4l-24.6,31.4h5.6c16.2,0,31.8,8.8,35,20.3l21.6,78.8l70.1,8.7c-0.2-1.4-0.3-2.8-0.3-4.2V552.5z"/>
		<path class="st14" d="M560.6,542.6c-3.7,0.2-7.8,0.4-12.1,0.6c-41.5,2.1-120.6,8.3-120.6,8.3l-38.8,43l169.6,21.1v-65.9
			C558.8,547.2,559.4,544.8,560.6,542.6z"/>
		<polygon class="st14" points="955.6,585.6 813.6,589.3 822.2,620.6 		"/>
		<polygon class="st15" points="492.8,620.1 441.2,595.4 434.2,574.8 441.2,570.9 447.6,573.5 451.3,568.5 447.6,561.9 438.2,561.9 
			436.7,556.3 445.3,553.2 453.9,557.6 463.5,554.2 458.3,549.1 480.6,547.5 487.7,556.9 495.1,554.2 490,546.8 525.6,544.4 
			528.4,553.2 533.1,552.5 536,543.8 538.7,548.1 542,561.9 550.7,559.9 570.4,571.4 552.3,606.4 		"/>
		<path class="st16" d="M603.2,529.1h-5.6h-9c-12.8,0-23.8,5.5-28,13.4c-1.2,2.2-1.8,4.6-1.8,7.1v65.9v20.5
			c0,21.7,20.9,40.9,46.2,40.2l22.5-0.6c24.9-0.6,39.8-20.4,34-41.6l-1.7-6l-21.6-78.8C635,537.9,619.4,529.1,603.2,529.1z"/>
		<path class="st16" d="M822.2,620.6l-8.6-31.3l-10.2-37.1c-2.9-10.7-17.4-18.8-32.5-18.8h-13.6c-8.3,0-15.7,2.4-20.8,6.4
			c-4.3,3.3-6.9,7.7-6.9,12.7v80.3c0,1.4,0.1,2.8,0.3,4.2c2.4,18.4,20.8,33.8,42.6,33.2l20.9-0.5c23.1-0.6,37-18.9,31.6-38.6
			L822.2,620.6z"/>
	</g>
	<g>
		<polygon class="st17" points="471.1,554.2 468,541.3 470.1,536.5 482.6,537.1 487.2,532.6 484,523.2 470.1,528.5 449.3,528.8 
			433.1,544.2 421.1,578.8 473.3,584.7 471.5,581.1 452.6,575.7 446,564.8 456.2,565.3 462.4,572.9 468.3,571 469,564.8 
			462.8,559.1 463.5,554.2 474.9,559.1 479.8,564.8 486.5,572.9 491.4,566 485.8,554.2 		"/>
		<polygon class="st17" points="474.9,542.9 477.3,550 497.6,550 499.3,543.7 495.6,537.1 		"/>
		<polygon class="st17" points="484.6,514.5 477.6,515.1 474.9,522 482.4,518.4 		"/>
		<polygon class="st17" points="489.1,516.4 487.1,520.5 492.5,522 497.3,528.5 503.5,526.4 503.5,518.2 		"/>
		<polygon class="st17" points="473.1,571.4 478.8,574.5 477.3,579.7 479.8,582.6 482.7,580.8 482.7,574.2 474.9,566.7 		"/>
	</g>
</g>
<g id="VINCE_x5F_HAIR_1_">
	<g id="VINCE_x5F_HAIR">
		<polygon class="st18" points="661.3,567.8 659.1,562.8 667,552.2 671.1,534.3 667.6,521.4 665.4,504.8 661.6,500.8 656.3,500.4 
			653.9,496.5 648.9,495.3 643.4,497.7 638.3,492.6 624.1,491.1 615.8,494.7 609.9,504.8 601,513.4 598.2,522.7 601.8,540.1 
			600.9,553 595.6,555.4 589,553.9 594.9,558.2 601,559.6 596.8,562.5 590.8,561.6 596,565.7 602.7,566.7 598.9,568.8 594.2,569 
			598.9,572.3 604.6,573.1 660.1,575 666.4,573.2 670.7,567.5 665.6,568.6 		"/>
		<g>
			<polygon class="st19" points="671.1,534.3 667.6,521.4 665.4,504.8 661.6,500.8 656.3,500.4 653.9,496.5 649.9,497 651.4,499.1 
				645,499.1 648,501.7 648,503.6 642.1,505.1 641.4,509.2 645.8,506.2 656.2,504.7 662.4,509.3 660.6,515.3 662.7,516.2 
				661.4,524.1 664.3,525.6 660.2,529.7 661.3,531.7 665.8,529.3 667.5,536.7 659,550.9 661.5,556.3 664,552.7 662.7,549.3 
				667,552.2 			"/>
			<polygon class="st19" points="638.1,497.4 634.1,496.5 633.5,499.3 642.1,502.1 			"/>
			<polygon class="st19" points="664.8,534.3 662.7,534.6 661.3,537.1 663.1,538.3 665.3,536 			"/>
			<polygon class="st19" points="658.1,556.3 652.6,560.9 653.2,563.3 656.6,561.8 659.7,557.7 			"/>
			<polygon class="st19" points="656.9,566.4 658,568.5 661.3,567.8 659.1,562.8 			"/>
		</g>
	</g>
</g>
<g id="VINCE_x5F_TORSO_1_">
	<g id="VINCE_x5F_TORSO">
		<polygon class="st20" points="645.4,576.9 639.3,581.1 634.7,577.3 634.2,582.2 633.5,588.5 612.3,569.3 637.5,617 649.6,617.2 
			655.4,576.1 		"/>
		<polygon class="st21" points="649.9,559 648.9,555.5 646.7,550 642.1,547.3 631.8,546.5 621.9,548.1 619.2,550.9 618.5,559.9 
			618.3,562.1 635.3,573.2 634.9,575.9 634.9,576 634.7,577.3 639.8,577.1 645.4,576.9 645,573.6 649.2,564.8 		"/>
		<polygon class="st8" points="618.3,562.1 618.5,559.9 616.7,560.5 612.3,569.3 633.5,588.5 634.7,577.3 634.7,577.3 634.9,576 
			634.9,575.9 635.3,573.2 		"/>
		<polygon class="st8" points="649.2,564.8 645,573.6 645.4,576.9 645.9,580.2 646.1,581.2 646.3,582.2 647.6,589.5 650.4,584.6 
			650.4,584.6 655.4,576.1 		"/>
		<polygon points="682,587.3 670.1,581.9 670.1,581.9 654.6,574.8 655.4,576.1 653.1,592.6 653.1,592.6 649.6,617.2 643.3,586.2 
			645.9,580.2 645.4,576.9 639.8,577.1 634.7,577.3 634.7,577.3 634.2,582.2 638.1,586.4 637.5,617 612.3,569.3 580.2,585 
			575.3,589.1 557.6,633.5 556.3,646.3 570.7,644.8 584.5,629.8 590.6,618.7 597.8,642.2 685.5,642.2 		"/>
		<polygon class="st22" points="642.1,568 644.3,568.5 646,568.9 645.6,570.3 644.3,571.5 642.1,571.5 642,573 642.9,574.2 
			644.3,574.5 645,573.6 649.2,564.8 649.9,559 645.7,559.5 644.1,561.9 646.5,563.6 645.1,565.5 642.7,566 		"/>
		<polygon class="st19" points="645.4,576.9 639.8,577.1 641.4,578.5 642.9,579.1 642.9,581.5 641,582.3 639.8,585 641.4,586.2 
			641.6,588.3 640.7,591.2 640.3,594.2 640.8,596.9 642.4,597.7 643.8,599.1 644.4,602.3 642.9,603.5 641.2,599.4 639.8,599.1 
			639.3,599.9 641.6,604.1 643.3,606.3 645.3,606.4 648.9,613.9 643.3,586.2 645.9,580.2 		"/>
		<polygon class="st19" points="653.1,592.6 656.4,582.1 657.7,581.7 658.6,582.3 658.4,583.8 657.1,585 657,586.6 657.5,587.8 
			659.4,586.9 659.5,584 660.3,582.9 661.8,582.9 662.7,585.4 662.7,588.5 661.3,590.1 660.4,593.2 660.7,595.8 663.3,596.7 
			664.4,593.2 664.5,589.8 666.9,588 670.1,585.1 670.1,581.9 670.1,581.9 654.6,574.8 655.4,576.1 653.1,592.6 		"/>
		<polygon class="st19" points="656.5,604.5 657.7,603.1 657.7,601.1 657.4,599.2 657.4,595.5 658.5,592.5 660.1,589.8 660.1,588.6 
			659,588.3 657.7,589.4 656.9,592.5 656.7,593.5 654.8,597.1 654.5,601.6 655.4,604.3 		"/>
		<path class="st19" d="M659.8,600.2l1.1,1.6l1.2-0.2l0.3-1.5v-1.5c0,0-0.9-0.7-1-0.7s-1.2,0.3-1.2,0.3L659.8,600.2z"/>
		<g>
			<polygon class="st23" points="634.1,575 633.4,574.2 632.5,574.5 632.5,575.4 633.3,576.1 633.5,577.3 634.6,578.3 634.7,577.3 
				634.7,577.3 634.9,576 634.9,575.9 634.9,575.8 634.7,575 			"/>
			<polygon class="st23" points="632,575.7 629.1,573.9 626.9,573.5 626.5,574.6 628.8,576.6 631.4,578.1 632,579.1 633.2,579.7 
				633.5,578.5 632.3,577 			"/>
			<polygon class="st23" points="645,573.6 646.3,573.3 646.7,574.2 645.9,575 645.9,575.9 646.7,576.5 648,575.5 648.5,573.3 
				649.4,572.5 650.6,572.8 651.8,574.2 651.3,576.1 648.9,579 648.5,580.1 649.1,581.1 650.2,580.8 651.5,579.6 652.2,576.9 
				653.3,575.6 655.4,576.1 649.2,564.8 			"/>
			<polygon class="st23" points="648.4,577.7 647.5,577.5 646.5,577.8 645.7,578.6 646.1,581.2 646.3,582.2 647.2,582.6 
				647.8,581.6 647.4,580.3 647.2,579.2 648.2,578.7 			"/>
			<polygon class="st19" points="643.1,608 641.7,608 640.8,607.7 640.2,609 640.8,610.2 642.2,610.5 643.5,609.5 644.7,609.4 
				644.5,608.3 			"/>
			<polygon class="st15" points="650.4,584.6 650.4,584.6 650.4,587.8 651.7,590.4 650.4,595 648.4,595.8 648.9,599.4 650.8,599.4 
				652.3,598.3 653.1,592.6 655.4,576.1 			"/>
		</g>
	</g>
</g>
<g id="VINCE_x5F_FACE_1_">
	<g id="VINCE_x5F_FACE">
		<polygon class="st21" points="616.6,540.1 618.2,539.6 617.9,535.6 618.6,525.8 618.6,525.8 616.7,523.2 612.1,523.2 609.6,527 
			611.1,537.5 612.7,538.5 		"/>
		<path class="st24" d="M613.7,538.3c-0.4,0-0.7,0.1-1,0.2c-1.3,0.4-2.3,1.7-2.3,3.1c0,1.8,1.5,3.3,3.3,3.3s3.3-1.5,3.3-3.3
			c0-0.5-0.1-1-0.3-1.5C616.1,539,615,538.3,613.7,538.3z M613.7,543.7c-1.2,0-2.2-1-2.2-2.2c0-1.2,1-2.2,2.2-2.2
			c0.2,0,0.4,0,0.6,0.1c0.4,0.1,0.8,0.4,1.1,0.7c0.3,0.4,0.5,0.9,0.5,1.4C615.9,542.8,614.9,543.7,613.7,543.7z"/>
		<polygon class="st25" points="659,517.5 656.1,507.2 645.8,506.2 641.4,509.2 637.5,504.8 629.4,503.6 622.5,505.9 619,520.7 
			618.6,525.8 617.9,535.6 618.2,539.6 619.2,550.9 622.7,555.9 630.7,561.1 634.7,565.9 640.6,566.4 645.1,565.5 649.9,559 
			656.5,552.8 659,540.1 658.4,529 		"/>
		<path class="st8" d="M642.7,551.2c-6.4,0-9,3-9,3s2.4-1.1,8-1.1c5.8,0,7.7,1,7.7,1S648,551.2,642.7,551.2z"/>
		<polygon class="st21" points="647.9,541.6 646.2,537 645.8,530.6 644.1,530.6 642.9,530.7 642.9,530.7 642.9,530.7 642,530.7 
			642,537.1 642,538.9 635.7,540.4 635.7,544.3 638,545.8 640.3,544.3 641.8,546.1 645,545.8 646,543.4 647.4,544.7 648.5,543.1 		
			"/>
		<polygon class="st22" points="644.4,540.1 642.1,540.9 642.1,542.5 643.3,542.9 646,541.3 647.9,541.6 647.9,541.6 646.2,537 
			645.8,530.6 644.1,530.6 642.9,530.7 642.9,530.7 643.3,532.3 644.9,533.6 644.1,536.3 642,537.1 642,538.9 643.8,539 		"/>
		<polygon class="st18" points="640.1,528.5 641,525.8 633.7,521.4 626.9,520.6 626.7,523.2 632.8,524.5 		"/>
		<polygon class="st18" points="646.8,528.8 651.6,525.7 655.8,524.4 656.1,522 651.6,522.7 646.7,525.8 		"/>
		
			<rect x="631.1" y="537.9" transform="matrix(0.9175 -0.3977 0.3977 0.9175 -161.8304 296.6451)" class="st21" width="6.1" height="1.1"/>
		
			<rect x="649.6" y="536.8" transform="matrix(0.6517 -0.7584 0.7584 0.6517 -182.4217 680.7867)" class="st21" width="1.1" height="4.5"/>
		<g>
			<polygon class="st15" points="659,517.5 656.1,507.2 645.8,506.2 641.4,509.2 635.7,509 635.7,512.4 646.1,512.6 640.2,515.3 
				641.5,518.2 645,517.8 648,515.1 653.9,514 655.4,516.9 653.6,519.3 651.4,518.8 649.3,520.6 651.6,522.7 656.1,522 655.8,524.4 
				656.9,528.2 657.8,534.3 656.1,535.7 656.9,537.6 656.2,540.9 653.9,543.7 648.5,543.1 647.4,544.7 647.5,548.7 650.2,550.1 
				649.4,554 641.4,555.6 642.1,557.3 647.1,557.6 642.8,559.8 640,559.9 636.5,560.5 636.5,562.2 637.8,563.3 640.6,561.8 
				643.3,561.5 643.3,563.3 641.4,564.1 640.6,566.4 645.1,565.5 649.9,559 656.5,552.8 659,540.1 658.4,529 			"/>
			<polygon class="st15" points="637.2,517 637.2,514.5 633.8,514.5 631.2,516.8 632.9,518.4 			"/>
			<polygon class="st15" points="649.9,518.4 650.4,517.1 649,517.1 646,519.4 642,520 638.5,520 638.1,522 640,522.6 644.4,520.6 
				648.5,518.4 			"/>
			<polygon class="st15" points="631.2,541.9 630,539.8 627.9,537.7 624.6,537.7 623.8,538.3 623.8,539.5 625.2,539.5 626.7,540.9 
				626.7,541.6 624.8,542.3 623.8,544.3 624.2,546.5 625.6,548.1 627.4,549.1 629.3,548.3 630.6,549.3 630,550.1 628.3,552.2 
				629,554.2 629.4,556.3 628.9,557.6 629,558.5 630.5,558.5 631.2,556.8 630.7,554.2 631.2,552.2 632.9,550.4 633.8,548.1 
				634.1,544.8 633.7,542.9 			"/>
		</g>
		<path class="st8" d="M633.8,528.2c-2.6,0-4.8,1.8-4.8,4s2.1,4,4.8,4c2.6,0,4.8-1.8,4.8-4S636.4,528.2,633.8,528.2z"/>
		<path class="st8" d="M652.6,536.4c2.3-0.6,3.8-2.6,3.3-4.5c-0.5-1.9-2.7-3-5-2.5s-3.8,2.6-3.3,4.5
			C648,535.8,650.3,536.9,652.6,536.4z"/>
		<polygon class="st18" points="638,545.8 640.3,544.3 641.8,546.1 		"/>
		<polygon class="st18" points="645,545.8 646,543.4 647.4,544.7 		"/>
	</g>
</g>
<g id="VINCE_x5F_EYES">
	<circle class="st26" cx="635.7" cy="534.3" r="1.4"/>
	<circle class="st26" cx="651.8" cy="534.6" r="1.4"/>
</g>
<g id="VINCE_x5F_ARM_x5F_R_1_">
	<g id="VINCE_x5F_ARM_x5F_R">
		<polygon class="st25" points="686.4,590.1 691.9,571.4 690,561.5 686.8,561.1 680.1,549.5 676.6,549.5 675.6,550 675.8,551.3 
			672.2,552.4 672.2,555.2 676.8,561.4 675.2,570.3 673.6,563.3 669.7,558.5 667.4,559.1 665.9,559.5 666.4,561.4 669.1,563.8 
			670.4,571.3 667.1,583.9 673.5,593.3 673.6,593.3 675,593.2 678.3,593.1 687,592.5 686.9,592.4 		"/>
		<polygon points="686.9,592.4 687,592.5 678.3,593.1 675,593.2 673.6,593.3 666.8,593.7 666.8,632.4 666.8,636.1 690.9,636.1 
			690.9,592.2 		"/>
		<polygon class="st19" points="671.7,628.4 669.7,624.2 670.9,622.1 672.9,624.2 675.6,623.8 677.4,621.6 676.7,617.9 678.2,615.8 
			681.2,615.8 683.9,614.8 683.9,612.8 682.2,611.2 678.8,611.9 675.6,609.1 678.8,603.8 678.9,599.2 678.3,593.1 678.3,593.1 
			675,593.2 673.6,593.3 666.8,593.7 666.8,632.4 670,631.6 		"/>
		<g>
			<path class="st15" d="M673.1,578.4l-2.1-1.6l1.2-1.7l2.9,0.7l1.9-0.6v-2.3l-3.3,0.8l-1.8-1.3l-1.4-6.2l0.4-3.8l-1.1-1.7h-2
				l-0.3-1.7l-1.5,0.4l0.5,2l2.7,2.4l1.2,7.5l-3.2,12.7l6.4,9.3l0,0l1.5-0.1l0.5-2.6l-1.8-2l2-0.4l1.7-3c0,0-1.8-0.9-1.8-1.2
				s-0.6-1.6-0.6-1.6l1.5-0.4l0.9-1.3v-1.6l-2.4-0.7H673.1z"/>
			<polygon class="st15" points="680.3,572.9 680.3,570.1 678.2,568.1 678.2,565.4 678.8,561.7 677.4,559.6 675.6,557.3 
				675.2,554.9 673.4,553.9 672.2,552.4 672.2,555.2 676.8,561.4 675.2,570.3 678,571.2 679.4,573.6 679.8,576.8 678.8,582.4 
				679.8,583.8 681.2,583.1 681.2,580.7 680.3,575.7 			"/>
			<polygon class="st15" points="684,567 683.5,564.2 684.6,561.3 682.6,556.5 680,554.2 680.1,552.4 678.8,551.3 677.4,551.8 
				675.6,550 675.8,551.3 681.8,559.1 682.2,561.6 682.2,568.4 683.8,570.9 683.8,574 684.8,575 685.9,573.9 685.9,571.4 
				684.8,568.4 			"/>
			<polygon class="st15" points="689.9,569.7 689.4,564.2 686.8,561.1 688.5,568.9 688.5,570.9 			"/>
		</g>
	</g>
</g>
<g id="VINCE_x5F_ARM_x5F_L_1_">
	<g id="VINCE_x5F_ARM_x5F_L">
		<polygon class="st20" points="561.1,541.1 558.4,543.7 559.9,546 562.3,544.3 		"/>
		<polygon points="560.3,580.8 544,568.9 546.5,636.9 556.3,646.3 570.7,644.8 575,628.5 567,585.7 		"/>
		<polygon class="st8" points="560.6,577.9 558.2,576.6 544,568.9 560.3,580.8 		"/>
		<g>
			<polygon class="st4" points="544.2,535.7 542,534.3 539.9,535.8 540.1,538.7 			"/>
			<polygon class="st4" points="533.5,539.7 533.1,542 538.7,543.5 538.9,540.9 			"/>
			<polygon class="st4" points="567.7,531.5 584.5,517.9 581.2,512.8 579.1,509.6 576.1,511.8 539.1,539.5 538.7,543.5 540.6,546.5 
				541.2,547.4 541.3,552.3 537.9,555 539,556.3 544.6,554.5 546.7,556.1 547.7,546.1 557,537.1 560.6,537.2 563,535.3 566,537.3 
				567.8,543.2 563.2,546.4 564.5,547 569.6,543.7 567.5,536.5 			"/>
			<polygon class="st4" points="573,564.7 558.4,543.7 560.6,537.2 563,535.3 554.7,537.7 544.2,550 546.7,556.1 562.3,571 
				568.5,567.9 			"/>
		</g>
		<polygon class="st25" points="571.4,553.8 569.7,553.6 569.7,551.2 567.4,549.5 565.1,549.5 564.5,547 563.2,546.4 561.9,545.8 
			558.3,548.4 556.5,551.6 554.7,550.9 555.5,546.5 561.1,541.1 564.2,541.5 566.3,540.4 563,537.3 560.6,537.2 557,537.1 
			547.7,546.1 546.7,556.1 546.6,558.1 544,568.9 558.2,576.6 558.3,576.5 561.1,576.1 568.5,569.4 568.5,567.9 568.6,563.9 
			571.2,561.2 573.2,556.2 		"/>
		<polygon class="st20" points="581.2,512.8 579.1,509.6 576.1,511.8 539.1,539.5 538.7,543.5 540.6,546.5 544.2,543.9 542.8,539.3 
			548.6,534.9 550.2,539.4 564.1,529.1 568.3,526 573.7,522 573.1,519.1 578.1,515.2 		"/>
		<g>
			<polygon class="st15" points="555.5,546.5 561.1,541.1 564.2,541.5 566.3,540.4 563,537.3 560.6,537.2 557,537.1 547.7,546.1 
				549.1,546.1 550.1,548.1 549.3,551.6 548.4,554.2 549.3,556.3 550.4,556.1 550.6,554.2 551,551.6 552.3,550.5 554.1,552.7 
				553.8,556.3 551.1,562.6 550.3,565.6 551,567.9 553.1,567.9 553.9,565.6 553.9,561.6 554.7,558.5 556.3,554.2 556.5,551.6 
				554.7,550.9 			"/>
			<polygon class="st15" points="571.4,553.8 569.7,553.6 569.7,551.2 567.4,549.5 565.1,549.5 564.5,547 563.2,546.4 561.9,545.8 
				558.3,548.4 556.5,551.6 558.4,550.9 558.4,554.2 557,557.6 558.8,559 560.5,557.6 560.6,555 562.3,552.7 565.3,551.6 567,551.2 
				567,553.6 567.6,556.9 567.8,559 565.8,561.6 563.9,564.1 562.9,566.7 563.9,569.3 565.8,568.9 566.3,566.7 568.6,563.9 
				571.2,561.2 573.2,556.2 			"/>
			<polygon class="st15" points="556.5,561.6 557,563.8 558.2,564.8 559.5,563.3 559.9,561.6 557.6,560.8 			"/>
		</g>
		<g>
			<polygon class="st22" points="578,517.4 578.6,519.5 577.7,521.7 576.4,522.6 574.9,522.6 573.9,523.2 572.9,524.4 571.8,527.4 
				568.3,530.5 565.7,530.6 563.9,531.3 563.9,533.1 564.9,533.6 565.9,534 566.3,535.3 565.7,536.2 566,537.3 567.8,543.2 
				569.6,543.7 567.5,536.5 567.7,531.5 584.5,517.9 581.2,512.8 578.1,515.2 			"/>
			<polygon class="st22" points="566.3,529.1 569.3,528.2 570.4,526.6 569.5,525.7 568.3,526 564.1,529.1 			"/>
			<polygon class="st23" points="574.6,513.9 574.1,514.9 575.2,515.6 576.3,514.9 578.1,515.2 578.1,515.2 581.2,512.8 
				579.1,509.6 576.1,511.8 576.1,511.8 575.7,513.3 			"/>
			<polygon class="st23" points="566.7,525.1 566,524.7 564.7,524.7 563.9,525.7 564.1,526.3 563.3,527 561.6,527.1 560.3,527.6 
				560.3,528.7 561.4,529.1 562.9,528.9 564.1,529.1 564.1,529.1 568.3,526 568.3,526 567,525.8 			"/>
		</g>
	</g>
</g>
<g id="JULES_x5F_TORSO_1_">
	<g id="JULES_x5F_TORSO">
		<polygon class="st20" points="751.6,568 795.7,555 791.7,566.9 788.7,613.1 		"/>
		<polygon class="st27" points="775.8,534.9 782.4,533.7 782.7,540.4 785.4,549.5 777.4,562.8 775.8,568.6 769.2,569 767,565.3 
			759.3,562.7 752.5,555.2 760.8,534.9 		"/>
		<polygon class="st8" points="773.1,568.8 769.9,579.7 751.6,568 755.1,557.4 771,565.3 		"/>
		<polygon class="st8" points="775.8,568.6 777.4,562.8 785.4,549.5 784.2,545.4 791.7,555 784.6,576.2 		"/>
		<polygon points="831.7,594.1 812.1,557.4 795.7,555 791.7,566.9 789.8,596 781.4,579.2 784.1,572.4 779.4,568.3 773.1,568.8 
			771.5,574.6 775,579.7 777.7,599.7 751.6,568 726.6,577.8 714.2,653.1 723.3,668.5 735.5,672.7 749.7,668.5 754.7,655.6 
			827.4,645.2 836.2,620.2 		"/>
		<polygon class="st23" points="751.6,568 755.1,557.4 771,565.3 773.1,568.8 771.1,570.7 768.9,569.9 768.9,567.7 766.8,567.7 
			767.1,570.1 769.7,572.2 770.6,573.9 769.5,575.7 767.7,575.1 767,572 764.8,570.3 763.3,571.2 763.9,573 762.3,573.6 
			760.4,571.1 761.1,567.2 760.2,564.5 758.8,564.2 757.6,565.3 758.6,567.5 757.1,569 755.9,568.2 755.8,565.3 755.4,563.6 
			754.7,564.2 754.1,566.6 		"/>
		<polygon class="st15" points="751.6,568 765.5,576.8 767.9,580.5 767.4,582.2 764.8,581.5 764.1,578.4 761.5,576.2 761,577.1 
			762.8,580.1 762.3,581 		"/>
	</g>
</g>
<g id="JULES_x5F_FACE_1_">
	<g id="JULES_x5F_FACE">
		<polygon class="st28" points="738.8,514.2 737.6,521.4 738.6,526.3 738.5,532.6 744.3,552.1 747.2,556.1 749.8,561.8 753.8,562.8 
			755.9,561.8 758.1,562.7 763.3,562.7 769.5,557.6 779.3,549.3 782.4,537.9 785.3,537.9 788.8,535.1 790.6,526.3 789.4,522.1 
			783.1,531.4 777.4,529.4 772.6,515.2 767,509.1 746,508.5 		"/>
		<circle class="st8" cx="763.8" cy="525.9" r="4.7"/>
		<circle class="st8" cx="746.4" cy="527.3" r="4.7"/>
		<polygon class="st29" points="752.7,522.1 744.2,517.5 739.7,517.1 739.7,519.4 752.1,523 		"/>
		<polygon class="st29" points="757.3,522.4 756.3,521.4 763.6,515.3 769,513.7 770,515.6 		"/>
		<g>
			<g>
				
					<rect x="762.3" y="530" transform="matrix(0.3977 -0.9175 0.9175 0.3977 -29.4821 1020.8649)" class="st27" width="1" height="5.8"/>
			</g>
		</g>
		<g>
			<g>
				
					<rect x="746.1" y="533.1" transform="matrix(0.7584 -0.6517 0.6517 0.7584 -167.0392 616.5476)" class="st27" width="4.3" height="1"/>
			</g>
		</g>
		<polygon class="st30" points="787.1,493.9 760.2,484.6 737.5,494.4 730.3,514.4 735.4,532.6 738.5,532.6 738.6,526.3 737.6,521.4 
			738.8,514.2 746,508.5 767,509.1 772.6,515.2 777.4,529.4 779.6,530.2 779,541.9 774.4,545.2 774.7,549.1 779.3,549.3 
			782.4,537.9 783.1,531.4 789.4,522.1 790.6,526.3 788.8,535.1 785.3,537.9 786.7,540.4 790.5,537.9 795.3,518.1 		"/>
		<polygon class="st27" points="752,533.8 750.3,535.8 747.1,537 747,539.9 750.9,540.3 760.3,539.4 763.3,537.8 762.3,535.1 
			758,535 755.8,533.5 		"/>
		<polygon class="st30" points="750.9,540.3 750.1,538.9 748.2,538.6 747,539.9 		"/>
		<polygon class="st30" points="760.3,539.4 761,538 757.3,538.3 756.5,539.7 		"/>
		<polygon class="st8" points="747.6,550.7 750.6,546.7 761.5,545.7 767.4,548.8 756.3,550.7 		"/>
		<polygon class="st30" points="755.8,544.3 755.9,540.4 766,541 771.5,545.2 773.8,555.3 771.9,559.4 766.7,558.2 769.3,547.6 
			763.6,544.5 		"/>
		<polygon class="st30" points="752.2,544.8 752.2,541.3 745.8,544 742.9,550.3 745.2,554.9 744.2,559.3 749.3,560.6 745.4,551 
			748.2,546.4 		"/>
		<polygon class="st31" points="738.5,532.6 735.4,532.6 730.3,514.4 735.3,500.5 740.5,500.5 740.5,503.2 737.6,503.4 735.4,504.7 
			734,508.5 739.7,506.3 740.5,510.1 734.9,513.7 734.6,517.1 736.3,518.5 734.9,521.2 736.7,523.8 736.6,528.7 		"/>
		<polygon class="st31" points="737.6,505.7 737.6,504.5 740.5,504.5 743.8,502.9 747,500.5 749.3,502.5 748.2,505 745.1,505.7 
			740.5,505.7 		"/>
		<polygon class="st31" points="735.8,499.1 736.6,496.9 741.9,496.9 743.9,499.1 741.6,499.8 738.5,498.7 		"/>
		<polygon class="st31" points="738.8,514.2 738.4,516.9 736.4,516.6 736.4,514.2 		"/>
		<polygon class="st19" points="738.6,526.3 738.5,532.6 743.5,549.1 743.5,543.2 745.4,541.9 745.4,539.7 743.8,538.9 742.9,540.3 
			741.2,539.5 740.5,536 741.7,533.7 739.7,530.6 		"/>
		<polygon class="st19" points="742.2,538.9 741.6,538 741.7,536.3 743.1,534.8 745.1,536.3 744.5,537.7 742.7,537.9 		"/>
	</g>
</g>
<g id="JULES_x5F_EYES_1_">
	<g id="JULES_x5F_EYES">
		<circle class="st29" cx="746.8" cy="530.1" r="1.4"/>
		<circle class="st29" cx="763.4" cy="528.7" r="1.4"/>
	</g>
</g>
<g id="JULES_x5F_ARM">
	<g id="JULES_x5F_ARM_x5F_L">
		<polygon points="724.8,644.9 715.6,629.5 732.6,591 745.4,599 756.9,597.4 756.8,627.1 756.2,632.1 751.2,644.9 737,649.1 		"/>
		<polygon class="st28" points="732.6,591 745.4,599 756.9,597.4 766.8,590.7 774.4,583.8 782.2,581.3 781.7,577.4 779.6,577 
			766.8,579.1 757.9,579.4 756.1,577.8 765.2,573.2 770.2,572.2 769.5,567.7 760.9,568.6 750.2,574 745.8,576.5 742.4,573.6 
			746.4,570.3 748.9,565.8 745,561.9 740.3,567.5 733.6,573.8 		"/>
		<polygon class="st19" points="732.6,591 733.6,573.8 740.3,567.5 745,561.9 747,563.8 745.4,566.6 742.4,568 736.9,574.1 
			738.8,580.4 737.6,584 735.4,584 734.3,587.2 736.3,589.9 735,592.5 		"/>
		<polygon class="st19" points="742.4,573.6 745.8,576.5 750.2,574 760.9,568.6 769.5,567.7 767.1,570.1 762,570.2 758.8,573.8 
			747,577.5 745.4,579.6 745.8,585.1 745.4,593.4 742.9,594.1 741.7,592.5 745,584.9 		"/>
		<polygon class="st19" points="774.4,583.8 762,587.1 761,591 762.3,592.5 765.7,589.6 766.6,587.1 		"/>
		<polygon class="st19" points="756.1,577.8 757.9,579.4 766.8,579.1 779.6,577 781.7,577.4 781.1,579.4 779.7,580.2 777.7,579.7 
			776.3,578.9 773.6,579.1 771.4,580.9 768.7,582.7 764,581.4 760.5,581.4 758.2,581.9 758.2,585.8 756.9,588.6 755.2,588.8 
			754.6,587.1 756.1,584.8 757.2,582.9 757.4,581.1 756.3,580.4 755.6,582.1 755.2,584 753,583.8 753.1,581.3 754.6,579.7 		"/>
	</g>
</g>
<g id="CHEVY">
	<g>
		<path class="st16" d="M1041.3,862.5l24.9-48.4l37.9,5.8l215.9-25.8l62.9-55.2l0-78.6c-17.9-24.6-28.9-42-168.1-60.2
			c-139.3-18.2-212.1-18.9-212.1-18.9L900.1,465.7l-27.4-9c0,0-316.4,2-394.9,14.5c-78.4,12.5-129,58.1-150.8,73.4
			c-21.8,15.3-78,11.9-78,11.9l-6.6,27.5c-10.7,54.5,25.4,93.2,25.4,93.2l72.1,39.3c0,0-58.5-79.9,19.3-64.5
			c77.8,15.4,90.4,92.8,90.4,92.8l328.9,84.7c0,0-76.1-96.1,61.8-73.7c137.9,22.4,131.2,123.7,131.2,123.7l45.5,11.4L1041.3,862.5z
			 M707.2,492.4l190.9-9.5l13.5,7l79.1,92.5l-258.9,33.4L699,512.9L707.2,492.4z M414.8,582.8l14.3-41.1l32.4-30.8l44.8-10.4
			l31.3-1.9l133.6-5.1l14.9,16.9l33.4,106.9L414.8,582.8z"/>
		<polygon class="st12" points="1371,667.5 1305,707.4 1086.1,726.5 1085.5,804.2 1109.4,807.6 1306.1,785.8 1369.5,747.1 		"/>
		<path class="st32" d="M1349.5,680.5l0.4,0.1l-2.9,8.1c10.1,4.2,17.3,16.3,17.3,30.6c0,15.4-8.4,28.3-19.7,31.5l0,2.7l5.5,5.4
			l19.4-11.9l1.5-79.6L1349.5,680.5z"/>
		<path class="st8" d="M1344.6,750.8c11.3-3.2,19.7-16.1,19.7-31.5c0-14.3-7.3-26.4-17.3-30.6l-2.2,6.2L1344.6,750.8z"/>
		<path class="st32" d="M1127.4,796.9l0.2-64.4l-9.9-8.7l-31.7,2.8l-0.1,7.1c3-1.5,6.2-2.3,9.6-2.3c14.9,0,27,15.5,27,34.5
			c0,19.1-12.1,34.5-27,34.5c-3.6,0-7-0.9-10.1-2.5l0,6.4l23.9,3.4l11.3-1.2L1127.4,796.9z"/>
		<path class="st8" d="M1122.6,765.9c0-19.1-12.1-34.5-27-34.5c-3.4,0-6.6,0.8-9.6,2.3l-0.5,64.2c3.1,1.6,6.5,2.5,10.1,2.5
			C1110.5,800.4,1122.6,785,1122.6,765.9z"/>
		<path class="st12" d="M774.1,503c-1.7,0.1-3,1.6-2.9,3.3l1,16.3c0.1,1.7,1.6,3,3.3,2.9l52.5-3.3c1.7-0.1,3-1.6,2.9-3.3l-1-16.3
			c-0.1-1.7-1.6-3-3.3-2.9l-22.8,1.4l-0.7-8.9l-4.7,0.2l0.7,8.9L774.1,503z"/>
		<polygon class="st4" points="1132.3,730.4 1124.2,723.2 1124.2,723.2 1117.7,723.8 1117.7,723.8 1127.6,732.5 1127.4,796.9 
			1120.6,806.4 1120.6,806.4 1126.9,805.7 1132.1,798.4 		"/>
		<polygon class="st4" points="1344.6,750.8 1344.8,695 1347,688.7 1349.9,680.6 1349.5,680.5 1349.5,680.5 1343.7,684 
			1340.1,694.2 1339.9,755.5 1346,761.4 1350.1,758.9 1344.6,753.5 		"/>
		<polygon points="878.7,737.1 322.7,624.2 286.9,669.2 339.9,716.4 449.6,744.7 570.7,737.4 778.5,829.4 971.5,879.5 993.8,838.3 
					"/>
		<path class="st33" d="M267.8,677.2l72.1,39.3c0,0-58.5-79.9,19.3-64.5c77.8,15.4,90.4,92.8,90.4,92.8l328.9,84.7
			c0,0-76.1-96.1,61.8-73.7c137.9,22.4,131.2,123.7,131.2,123.7l45.5,11.4l32.4-140.5L242.4,584
			C231.7,638.5,267.8,677.2,267.8,677.2z"/>
		<polygon class="st34" points="1085.5,797.9 1086,733.7 1086.1,726.5 1055.9,729.2 1049.5,750.3 1038.6,797.6 1085.5,804.2 		"/>
		<polygon class="st34" points="1369.5,747.1 1369.5,747.1 1382.8,738.9 1382.8,660.4 1371,667.5 		"/>
		<path class="st12" d="M896.8,562.2c-9.5,1.9-17.6,7.6-22.9,16.2c-2.8,4.6-4.6,9.7-5.4,15l4.8-0.6c0.8-4.2,2.3-8.3,4.5-11.9
			c4.6-7.5,11.6-12.4,19.8-14c1.8-0.4,3.7-0.5,5.5-0.5c12,0,23.1,7.5,28.7,19l4.9-0.6C929.7,568.7,913.4,559,896.8,562.2z"/>
		<path class="st35" d="M1177.5,741.6l-27.4,2.1c-1.5,0.1-2.8,1.5-2.8,3v31.7c0,1.5,1.3,2.6,2.8,2.5l27.4-2.8c1.5-0.1,2.7-1.5,2.7-3
			v-31C1180.1,742.6,1178.9,741.5,1177.5,741.6z"/>
		<path class="st20" d="M1295.4,739.7l-18.2,2.6c-1,0.1-1.8,0.7-1.8,1.2v11c0,0.5,0.8,0.8,1.8,0.7l18.2-2.8c1-0.2,1.8-0.7,1.8-1.2
			v-10.7C1297.2,739.9,1296.4,739.6,1295.4,739.7z"/>
		<path class="st35" d="M1332.3,748.7c0.3-0.1,0.5-1.4,0.5-2.9v-31c0-1.5-0.2-2.6-0.5-2.4l-4.6,3.1c-0.2,0.2-0.4,1.5-0.4,2.9v30.1
			c0,1.4,0.2,2.5,0.4,2.4L1332.3,748.7z"/>
		<polygon class="st4" points="1434.6,750 1382.8,738.9 1369.5,747.1 1369.5,747.1 1350.1,758.9 1346,761.4 1306.1,785.8 
			1126.9,805.7 1120.6,806.4 1109.4,807.6 1085.5,804.2 1038.6,797.6 1033.6,819.3 1017.1,890.9 1117.6,900 1128,873.2 
			1375.3,819.7 1411.2,820 1440.1,765.7 		"/>
		<polygon class="st20" points="1143.9,821.2 1306.2,812.4 1383.1,761.8 1440.1,765.7 1434.6,750 1382.8,738.9 1369.5,747.1 
			1369.5,747.1 1350.1,758.9 1346,761.4 1306.1,785.8 1126.9,805.7 1120.6,806.4 1109.4,807.6 1085.5,804.2 1038.6,797.6 
			1033.6,819.3 1134.2,838.3 		"/>
		<path class="st4" d="M719.3,617.2l-33.4-106.9L671,493.4l-133.6,5.1l-31.3,1.9l-44.8,10.4L429,541.6l-14.3,41.1L719.3,617.2z
			 M511.2,589l12.7-78.9l9.8-6.7l3.9-0.2l131.3-5l12.8,14.5l31,99.1L511.2,589z M498.1,587.5l-77-8.7l12-34.5l30.6-29.1l43-10
			l1.2-0.1l3,4.4L498.1,587.5z"/>
		<path class="st4" d="M898.1,482.9l-190.9,9.5l-8.2,20.5l32.7,102.9l258.9-33.4l-79.1-92.5L898.1,482.9z M936.8,584.6l-4.9,0.6
			l-58.6,7.5l-4.8,0.6L735,610.6l-31-97.6l6.5-16.2l88-4.4l4.7-0.2l93.9-4.7l11.5,6l72.8,85.3L936.8,584.6z"/>
		<path class="st12" d="M668.4,606.7v-14.5c0-1.7-1.4-3.1-3.1-3.1h-47.1c-1.7,0-3.1,1.4-3.1,3.1v8.4v4.7v9.9c0,1.7,1.4,3.1,3.1,3.1
			H665l9.6,13.3l3.8-2.7l-10-13.9v-3.6V606.7z"/>
	</g>
	<g>
		<polygon class="st28" points="872.4,573.5 878.7,575.4 887.7,574.5 891.6,576.7 893.9,575.1 893.9,571.4 884.1,569.2 895.9,565.4 
			902.9,569.2 904.7,573.3 906.8,574.7 909.5,573.5 911.1,575.2 913.8,574.5 914.7,571 914.1,569.3 916.4,568.7 911.8,560.4 
			899,555 878.2,559.2 871.3,566.4 		"/>
		<polygon points="878.2,559.2 871.3,566.4 872.4,573.5 878.7,575.4 857.7,593.4 831.7,594.1 817.9,589.1 812.1,557.4 840.7,573.3 
			877.8,557.4 		"/>
	</g>
</g>
<g id="TYRE_x5F_back_x5F_base">
	<path class="st12" d="M433.3,730.3c-6.4-32.9-36.1-54.7-66.3-48.9c-30.2,5.9-49.5,37.3-43.1,70.2c6.4,32.9,36.1,54.7,66.3,48.9
		C420.4,794.6,439.7,763.2,433.3,730.3z"/>
</g>
<g id="TYRE_x5F_back_x5F_top">
	<g>
		<path class="st4" d="M405.2,734.5c-3.9-19.9-21.8-33.1-40.1-29.6c-18.3,3.6-29.9,22.6-26.1,42.5c3.9,19.9,21.8,33.1,40.1,29.6
			C397.4,773.4,409.1,754.4,405.2,734.5z M382.8,761.2c-9.4,1.8-18.6-5-20.5-15.1c-2-10.2,4-19.9,13.4-21.8
			c9.4-1.8,18.6,5,20.5,15.1C398.1,749.7,392.1,759.4,382.8,761.2z"/>
		
			<ellipse transform="matrix(0.9815 -0.1914 0.1914 0.9815 -135.169 86.3126)" class="st20" cx="379.2" cy="742.8" rx="17.3" ry="18.8"/>
	</g>
</g>
<g id="TYRE_x5F_front_x5F_base">
	<path class="st12" d="M942.8,851.6c-9.3-47.5-52.2-79.2-95.9-70.6c-43.7,8.5-71.6,54-62.3,101.5c9.3,47.5,52.2,79.2,95.9,70.6
		C924.2,944.5,952.1,899.1,942.8,851.6z"/>
</g>
<g id="TYRE_x5F_front_x5F_top">
	<g>
		<path class="st4" d="M902.2,857.7c-5.6-28.8-31.6-47.9-58-42.7c-26.4,5.2-43.3,32.6-37.7,61.4c5.6,28.8,31.6,47.9,58,42.7
			C891,913.9,907.8,886.4,902.2,857.7z M869.8,896.3c-13.5,2.6-26.8-7.2-29.7-21.9c-2.9-14.7,5.8-28.8,19.3-31.5
			c13.5-2.6,26.8,7.2,29.7,21.9C892,879.5,883.3,893.6,869.8,896.3z"/>
		
			<ellipse transform="matrix(0.9815 -0.1914 0.1914 0.9815 -150.4703 181.5757)" class="st20" cx="864.6" cy="869.6" rx="25" ry="27.2"/>
	</g>
</g>
</svg>
