<svg version="1.1" xmlns="http://www.w3.org/2000/svg" xmlns:xlink="http://www.w3.org/1999/xlink" x="0px" y="0px"
	 viewBox="0 0 1920 1080" style="enable-background:new 0 0 1920 1080;" xml:space="preserve">
<style type="text/css">
	.st0{fill:#BCCEDD;}
	.st1{fill:#4E4C51;}
	.st2{fill:#151917;}
	.st3{fill:none;stroke:#998300;stroke-width:21;stroke-miterlimit:10;}
	.st4{fill:none;stroke:#91BCB6;stroke-width:14;stroke-miterlimit:10;}
	.st5{fill:none;stroke:#91BCB6;stroke-width:28;stroke-miterlimit:10;}
	.st6{fill:#2B332E;}
	.st7{fill:#5E6D57;}
	.st8{fill:#4B5B43;}
	.st9{fill:#79896A;}
	.st10{fill:#FFAB7D;}
	.st11{fill:#535E53;}
	.st12{fill:#91BCB6;}
	.st13{fill:#2E4242;}
	.st14{fill:#FF1E00;}
	.st15{fill:#FFC7B6;}
	.st16{fill:#FFFFFF;}
</style>
<g id="background">
	<rect class="st0" width="1920" height="1080"/>
	<polygon class="st1" points="0,622.4 2554.1,437.6 1920,1080 0,1080 	"/>
	<polygon class="st2" points="1138.6,540 0,622.4 0,159.2 62.6,188 117.4,268.7 215.3,323.4 244.1,389.7 319,386.8 379.5,332.1 
		460.2,332.1 512,268.7 612.8,280.2 684.8,329.2 699.2,401.2 762.6,453.1 840.4,470.3 883.6,415.6 984.4,432.9 1047.8,499.1 	"/>
	<line class="st3" x1="-95.3" y1="1038.2" x2="2554.1" y2="437.6"/>
	<line class="st3" x1="-60.2" y1="1122.3" x2="2554.1" y2="437.6"/>
	<line class="st4" x1="2554.1" y1="437.6" x2="-364.4" y2="794.2"/>
	<line class="st5" x1="1422.9" y1="1221.5" x2="2554.1" y2="437.6"/>
</g>


</svg>
